<?xml version="1.0" encoding="UTF-8" standalone="no"?>
<svg
   xmlns:dc="http://purl.org/dc/elements/1.1/"
   xmlns:cc="http://creativecommons.org/ns#"
   xmlns:rdf="http://www.w3.org/1999/02/22-rdf-syntax-ns#"
   xmlns:svg="http://www.w3.org/2000/svg"
   xmlns="http://www.w3.org/2000/svg"
   id="svg122"
   xml:space="preserve"
   viewBox="0 0 550 445"
   height="445"
   width="550"
   version="1.1"><metadata
     id="metadata126"><rdf:RDF><cc:Work
         rdf:about=""><dc:format>image/svg+xml</dc:format><dc:type
           rdf:resource="http://purl.org/dc/dcmitype/StillImage" /></cc:Work></rdf:RDF></metadata><defs
     id="defs4"><style
       id="style2"
       type="text/css">@import url(&quot;https://fonts.googleapis.com/css2?family=Yeseva+One:wght@400&quot;);@import url(&quot;https://fonts.googleapis.com/css2?family=Yeseva+One:wght@400&quot;);</style></defs><defs
     id="defs6" /><g
     id="logo-slogan"
     style=""
     transform="matrix(1.5 0 0 1.5 346.76 256.14)"><linearGradient
       y2="0"
       x2="108.86666107177736"
       y1="0"
       x1="0"
       gradientTransform="matrix(1 0 0 1 -54.43 -11.3)"
       gradientUnits="userSpaceOnUse"
       id="SVGID_3"><stop
         id="stop8"
         style="stop-color:rgb(51,109,210);stop-opacity: 1"
         offset="0%" /></linearGradient><text
       id="text13"
       style="stroke: none; stroke-width: 1; stroke-dasharray: none; stroke-linecap: butt; stroke-dashoffset: 0; stroke-linejoin: miter; stroke-miterlimit: 4; fill: url(#SVGID_3); fill-rule: nonzero; opacity: 1; white-space: pre;"
       font-weight="normal"
       font-style="normal"
       font-size="20"
       font-family="Yeseva One"
       xml:space="preserve"><tspan
         id="tspan11"
         y="6.28"
         x="-54.43">Just one click</tspan></text>
</g><g
     id="icon"
     transform="matrix(0.23 0 0 0.23 180.85 222.5)"><g
       id="g111"
       style=""><g
         id="icon_piece"
         transform="matrix(1 0 0 1 -108.51 -100.17)"><path
           id="path16"
           stroke-linecap="round"
           d="m 143.906 85.176 c -34.582 37.006 -55.728 86.688 -55.728 141.304 h 99.693 c 0 -43.642 6.973 -84.108 18.935 -117.484 c -23.811 -5.842 -45.127 -13.952 -62.9 -23.82 z"
           transform=" translate(-147.49, -155.83)"
           style="stroke: none; stroke-width: 1; stroke-dasharray: none; stroke-linecap: butt; stroke-dashoffset: 0; stroke-linejoin: miter; stroke-miterlimit: 4; fill: rgb(191,219,255); fill-rule: evenodd; opacity: 1;" /></g><g
         id="g21"
         transform="matrix(1 0 0 1 -14.53 -88.26)"><path
           id="path19"
           stroke-linecap="round"
           d="m 206.806 108.996 c -11.962 33.377 -18.935 73.842 -18.935 117.484 h 107.204 v -107.276 c -31.578 0 -61.511 -3.658 -88.269 -10.208 z"
           transform=" translate(-241.47, -167.74)"
           style="stroke: none; stroke-width: 1; stroke-dasharray: none; stroke-linecap: butt; stroke-dashoffset: 0; stroke-linejoin: miter; stroke-miterlimit: 4; fill: rgb(128,182,255); fill-rule: evenodd; opacity: 1;" /></g><g
         id="g25"
         transform="matrix(1 0 0 1 92.69 -88.26)"><path
           id="path23"
           stroke-linecap="round"
           d="m 295.075 119.204 v 107.276 h 107.233 c 0 -43.642 -7.001 -84.108 -18.935 -117.484 c -26.788 6.55 -56.721 10.208 -88.298 10.208 z"
           transform=" translate(-348.69, -167.74)"
           style="stroke: none; stroke-width: 1; stroke-dasharray: none; stroke-linecap: butt; stroke-dashoffset: 0; stroke-linejoin: miter; stroke-miterlimit: 4; fill: rgb(191,219,255); fill-rule: evenodd; opacity: 1;" /></g><g
         id="g29"
         transform="matrix(1 0 0 1 186.69 -100.17)"><path
           id="path27"
           stroke-linecap="round"
           d="m 383.372 108.996 c 11.934 33.377 18.935 73.842 18.935 117.484 h 99.693 c 0 -54.616 -21.174 -104.298 -55.728 -141.304 c -17.773 9.868 -39.089 17.978 -62.9 23.82 z"
           transform=" translate(-442.69, -155.83)"
           style="stroke: none; stroke-width: 1; stroke-dasharray: none; stroke-linecap: butt; stroke-dashoffset: 0; stroke-linejoin: miter; stroke-miterlimit: 4; fill: rgb(128,182,255); fill-rule: evenodd; opacity: 1;" /></g><g
         id="g33"
         transform="matrix(1 0 0 1 186.69 41.13)"><path
           id="path31"
           stroke-linecap="round"
           d="m 402.307 226.48 c 0 43.642 -7.001 84.136 -18.935 117.513 c 23.811 5.813 45.127 13.952 62.9 23.792 c 34.554 -36.978 55.728 -86.66 55.728 -141.305 z"
           transform=" translate(-442.69, -297.13)"
           style="stroke: none; stroke-width: 1; stroke-dasharray: none; stroke-linecap: butt; stroke-dashoffset: 0; stroke-linejoin: miter; stroke-miterlimit: 4; fill: rgb(191,219,255); fill-rule: evenodd; opacity: 1;" /></g><g
         id="g37"
         transform="matrix(1 0 0 1 92.69 29.24)"><path
           id="path35"
           stroke-linecap="round"
           d="m 402.307 226.48 h -107.232 v 54.418 h 26.872 v 53.765 c 21.713 1.446 42.349 4.651 61.426 9.33 c 11.933 -33.377 18.934 -73.871 18.934 -117.513 z"
           transform=" translate(-348.69, -285.24)"
           style="stroke: none; stroke-width: 1; stroke-dasharray: none; stroke-linecap: butt; stroke-dashoffset: 0; stroke-linejoin: miter; stroke-miterlimit: 4; fill: rgb(128,182,255); fill-rule: evenodd; opacity: 1;" /></g><g
         id="g41"
         transform="matrix(1 0 0 1 -14.53 -2.31)"><path
           id="path39"
           stroke-linecap="round"
           d="m 295.075 226.48 h -107.204 c 0 18.829 1.304 37.063 3.742 54.418 h 103.463 v -54.418 z"
           transform=" translate(-241.47, -253.69)"
           style="stroke: none; stroke-width: 1; stroke-dasharray: none; stroke-linecap: butt; stroke-dashoffset: 0; stroke-linejoin: miter; stroke-miterlimit: 4; fill: rgb(191,219,255); fill-rule: evenodd; opacity: 1;" /></g><g
         id="g45"
         transform="matrix(1 0 0 1 -116.1 -2.31)"><path
           id="path43"
           stroke-linecap="round"
           d="m 187.871 226.48 h -99.693 c 0 18.829 2.523 37.063 7.228 54.418 h 96.206 c -2.438 -17.355 -3.741 -35.589 -3.741 -54.418 z"
           transform=" translate(-139.9, -253.69)"
           style="stroke: none; stroke-width: 1; stroke-dasharray: none; stroke-linecap: butt; stroke-dashoffset: 0; stroke-linejoin: miter; stroke-miterlimit: 4; fill: rgb(128,182,255); fill-rule: evenodd; opacity: 1;" /></g><g
         id="g49"
         transform="matrix(1 0 0 1 96.66 124.8)"><path
           id="path47"
           stroke-linecap="round"
           d="m 383.372 343.993 c -19.077 -4.679 -39.713 -7.883 -61.426 -9.33 v 52.036 v 40.239 c 25.285 -12.591 46.97 -42.593 61.426 -82.945 z"
           transform=" translate(-352.66, -380.8)"
           style="stroke: none; stroke-width: 1; stroke-dasharray: none; stroke-linecap: butt; stroke-dashoffset: 0; stroke-linejoin: miter; stroke-miterlimit: 4; fill: rgb(191,219,255); fill-rule: evenodd; opacity: 1;" /></g><g
         id="g53"
         transform="matrix(1 0 0 1 128.11 131.86)"><path
           id="path51"
           stroke-linecap="round"
           d="m 383.372 343.993 c -14.456 40.352 -36.141 70.355 -61.426 82.945 v 4.792 c 48.812 -6.324 92.323 -29.69 124.325 -63.946 c -17.772 -9.839 -39.088 -17.978 -62.899 -23.791 z"
           transform=" translate(-384.11, -387.86)"
           style="stroke: none; stroke-width: 1; stroke-dasharray: none; stroke-linecap: butt; stroke-dashoffset: 0; stroke-linejoin: miter; stroke-miterlimit: 4; fill: rgb(128,182,255); fill-rule: evenodd; opacity: 1;" /></g><g
         id="g57"
         transform="matrix(1 0 0 1 114.67 -191.75)"><path
           id="path55"
           stroke-linecap="round"
           d="m 295.075 19.5 c 36.623 0 68.966 35.418 88.298 89.496 c 23.811 -5.842 45.127 -13.952 62.9 -23.82 c -37.758 -40.41 -91.53 -65.676 -151.198 -65.676 z"
           transform=" translate(-370.67, -64.25)"
           style="stroke: none; stroke-width: 1; stroke-dasharray: none; stroke-linecap: butt; stroke-dashoffset: 0; stroke-linejoin: miter; stroke-miterlimit: 4; fill: rgb(191,219,255); fill-rule: evenodd; opacity: 1;" /></g><g
         id="g61"
         transform="matrix(1 0 0 1 83.22 -186.65)"><path
           id="path59"
           stroke-linecap="round"
           d="m 295.075 19.5 v 99.704 c 31.577 0 61.511 -3.658 88.298 -10.209 c -19.333 -54.077 -51.675 -89.495 -88.298 -89.495 z"
           transform=" translate(-339.22, -69.35)"
           style="stroke: none; stroke-width: 1; stroke-dasharray: none; stroke-linecap: butt; stroke-dashoffset: 0; stroke-linejoin: miter; stroke-miterlimit: 4; fill: rgb(128,182,255); fill-rule: evenodd; opacity: 1;" /></g><g
         id="g65"
         transform="matrix(1 0 0 1 -5.06 -186.65)"><path
           id="path63"
           stroke-linecap="round"
           d="m 295.075 19.5 c -36.595 0 -68.937 35.418 -88.269 89.496 c 26.759 6.551 56.692 10.209 88.269 10.209 z"
           transform=" translate(-250.94, -69.35)"
           style="stroke: none; stroke-width: 1; stroke-dasharray: none; stroke-linecap: butt; stroke-dashoffset: 0; stroke-linejoin: miter; stroke-miterlimit: 4; fill: rgb(191,219,255); fill-rule: evenodd; opacity: 1;" /></g><g
         id="g69"
         transform="matrix(1 0 0 1 -36.51 -191.75)"><path
           id="path67"
           stroke-linecap="round"
           d="m 295.075 19.5 c -59.64 0 -113.412 25.266 -151.169 65.676 c 17.773 9.868 39.089 17.979 62.9 23.82 c 19.332 -54.078 51.674 -89.496 88.269 -89.496 z"
           transform=" translate(-219.49, -64.25)"
           style="stroke: none; stroke-width: 1; stroke-dasharray: none; stroke-linecap: butt; stroke-dashoffset: 0; stroke-linejoin: miter; stroke-miterlimit: 4; fill: rgb(128,182,255); fill-rule: evenodd; opacity: 1;" /></g><g
         id="g73"
         transform="matrix(1 0 0 1 -90.03 77.8)"><path
           id="path71"
           stroke-linecap="round"
           d="m 95.406 280.898 h -85.406 v 105.801 h 311.947 v -52.036 v -53.765 h -26.872 h -103.463 z"
           transform=" translate(-165.97, -333.8)"
           style="stroke: none; stroke-width: 1; stroke-dasharray: none; stroke-linecap: butt; stroke-dashoffset: 0; stroke-linejoin: miter; stroke-miterlimit: 4; fill: rgb(236,242,243); fill-rule: evenodd; opacity: 1;" /></g><g
         id="g77"
         transform="matrix(1 0 0 1 -90.03 183.6)"><path
           id="path75"
           stroke-linecap="round"
           d="m 321.947 386.699 h -311.947 v 105.801 h 311.947 v -60.77 v -4.792 z"
           transform=" translate(-165.97, -439.6)"
           style="stroke: none; stroke-width: 1; stroke-dasharray: none; stroke-linecap: butt; stroke-dashoffset: 0; stroke-linejoin: miter; stroke-miterlimit: 4; fill: rgb(236,242,243); fill-rule: evenodd; opacity: 1;" /></g><g
         id="g81"
         transform="matrix(1 0 0 1 -45.54 77.25)"><path
           id="path79"
           stroke-linecap="round"
           d="m 163.606 343.245 h 93.711 c 5.523 0 10 -4.477 10 -10 s -4.477 -10 -10 -10 h -93.711 c -5.523 0 -10 4.477 -10 10 s 4.477 10 10 10 z"
           transform=" translate(-210.46, -333.25)"
           style="stroke: none; stroke-width: 1; stroke-dasharray: none; stroke-linecap: butt; stroke-dashoffset: 0; stroke-linejoin: miter; stroke-miterlimit: 4; fill: rgb(0,0,0); fill-rule: nonzero; opacity: 1;" /></g><g
         id="g85"
         transform="matrix(1 0 0 1 -137.05 77.25)"><path
           id="path83"
           stroke-linecap="round"
           d="m 118.962 343.245 c 5.523 0 10 -4.477 10 -10 s -4.477 -10 -10 -10 h -0.057 c -5.523 0 -9.972 4.477 -9.972 10 s 4.506 10 10.029 10 z"
           transform=" translate(-118.95, -333.25)"
           style="stroke: none; stroke-width: 1; stroke-dasharray: none; stroke-linecap: butt; stroke-dashoffset: 0; stroke-linejoin: miter; stroke-miterlimit: 4; fill: rgb(0,0,0); fill-rule: nonzero; opacity: 1;" /></g><g
         id="g89"
         transform="matrix(1 0 0 1 -181.36 77.25)"><path
           id="path87"
           stroke-linecap="round"
           d="m 74.657 343.245 c 5.523 0 10 -4.477 10 -10 s -4.477 -10 -10 -10 h -0.057 c -5.523 0 -9.972 4.477 -9.972 10 s 4.506 10 10.029 10 z"
           transform=" translate(-74.64, -333.25)"
           style="stroke: none; stroke-width: 1; stroke-dasharray: none; stroke-linecap: butt; stroke-dashoffset: 0; stroke-linejoin: miter; stroke-miterlimit: 4; fill: rgb(0,0,0); fill-rule: nonzero; opacity: 1;" /></g><g
         id="g93"
         transform="matrix(1 0 0 1 -45.54 183.05)"><path
           id="path91"
           stroke-linecap="round"
           d="m 257.318 429.046 h -93.711 c -5.523 0 -10 4.477 -10 10 s 4.477 10 10 10 h 93.711 c 5.523 0 10 -4.477 10 -10 s -4.477 -10 -10 -10 z"
           transform=" translate(-210.46, -439.05)"
           style="stroke: none; stroke-width: 1; stroke-dasharray: none; stroke-linecap: butt; stroke-dashoffset: 0; stroke-linejoin: miter; stroke-miterlimit: 4; fill: rgb(0,0,0); fill-rule: nonzero; opacity: 1;" /></g><g
         id="g97"
         transform="matrix(1 0 0 1 -137.05 183.05)"><path
           id="path95"
           stroke-linecap="round"
           d="m 118.905 429.046 c -5.523 0 -9.972 4.477 -9.972 10 s 4.506 10 10.029 10 s 10 -4.477 10 -10 s -4.477 -10 -10 -10 z"
           transform=" translate(-118.95, -439.05)"
           style="stroke: none; stroke-width: 1; stroke-dasharray: none; stroke-linecap: butt; stroke-dashoffset: 0; stroke-linejoin: miter; stroke-miterlimit: 4; fill: rgb(0,0,0); fill-rule: nonzero; opacity: 1;" /></g><g
         id="g101"
         transform="matrix(1 0 0 1 -181.36 183.05)"><path
           id="path99"
           stroke-linecap="round"
           d="m 74.6 429.046 c -5.523 0 -9.972 4.477 -9.972 10 s 4.506 10 10.029 10 s 10 -4.477 10 -10 s -4.477 -10 -10 -10 z"
           transform=" translate(-74.64, -439.05)"
           style="stroke: none; stroke-width: 1; stroke-dasharray: none; stroke-linecap: butt; stroke-dashoffset: 0; stroke-linejoin: miter; stroke-miterlimit: 4; fill: rgb(0,0,0); fill-rule: nonzero; opacity: 1;" /></g><g
         id="g105"
         transform="matrix(1 0 0 1 0 0)"><path
           id="path103"
           stroke-linecap="round"
           d="m 448.469 73.055 c -40.971 -40.984 -95.448 -63.555 -153.394 -63.555 c -119.597 0 -216.896 97.337 -216.896 216.98 c 0 14.958 1.538 29.845 4.566 44.418 h -72.745 c -5.523 0 -10 4.477 -10 10 v 105.801 v 105.801 c 0 5.523 4.477 10 10 10 h 176.057 c 5.523 0 10 -4.477 10 -10 s -4.477 -10 -10 -10 h -166.057 v -85.801 h 291.947 v 85.801 h -36.062 c -5.523 0 -10 4.477 -10 10 s 4.477 10 10 10 h 46.062 c 5.523 0 10 -4.477 10 -10 v -52.172 c 48.427 -8.302 92.756 -32.964 125.602 -70.077 c 35.113 -39.677 54.451 -90.735 54.451 -143.771 c 0 -57.957 -22.562 -112.444 -63.531 -153.425 z m 43.273 143.425 h -79.568 c -0.861 -35.894 -6.331 -70.24 -15.884 -100.496 c 17.22 -4.846 33.239 -10.974 47.679 -18.286 c 27.872 32.199 45.498 73.501 47.773 118.782 z m -62.367 -133.921 c -12.118 5.657 -25.517 10.496 -39.836 14.437 c -2.981 -7.494 -6.231 -14.672 -9.753 -21.472 c -7.555 -14.586 -16.054 -26.924 -25.271 -36.846 c 28.227 8.959 53.712 24.123 74.86 43.881 z m -251.369 153.921 c 0.28 11.595 1.046 23.106 2.291 34.418 h -77.074 c -2.596 -11.29 -4.191 -22.81 -4.779 -34.418 z m 22.418 34.418 c -1.312 -11.29 -2.117 -22.806 -2.412 -34.418 h 87.063 v 34.418 z m -2.428 -54.418 c 0.86 -34.372 6.153 -67.092 15.334 -95.68 c 22.542 4.865 46.713 7.687 71.745 8.28 v 87.4 z m 22.299 -114.762 c 2.435 -5.904 5.05 -11.583 7.852 -16.994 c 15.94 -30.778 35.859 -49.592 56.928 -54.136 v 78.485 c -22.388 -0.581 -44.283 -3.104 -64.78 -7.355 z m 84.78 27.364 c 25.042 -0.594 49.223 -3.414 71.773 -8.28 c 9.181 28.586 14.458 61.309 15.319 95.678 h -87.093 v -87.398 z m 56.953 -44.358 c 2.804 5.412 5.42 11.094 7.856 17 c -20.505 4.251 -42.413 6.768 -64.809 7.349 v -78.486 c 21.08 4.542 41.008 23.357 56.953 54.137 z m -126.38 -46.039 c -9.213 9.921 -17.707 22.258 -25.26 36.841 c -3.521 6.798 -6.769 13.974 -9.749 21.465 c -14.317 -3.942 -27.72 -8.778 -39.837 -14.438 c 21.143 -19.755 46.629 -34.908 74.846 -43.868 z m -89.44 59.021 c 14.437 7.312 30.465 13.431 47.68 18.276 c -9.553 30.258 -15.035 64.602 -15.895 100.498 h -79.563 c 2.275 -45.281 19.91 -86.574 47.778 -118.774 z m 165.739 278.993 h -291.947 v -85.801 h 291.947 z m 10 -105.801 h -16.872 v -34.418 h 87.094 c -0.856 34.348 -6.105 66.943 -15.386 95.755 c -14.386 -3.114 -29.425 -5.398 -44.836 -6.8 v -44.538 c 0 -5.522 -4.477 -9.999 -10 -9.999 z m 10 137.343 v -21.542 v -41.18 c 13.026 1.248 25.735 3.154 37.936 5.685 c -10.251 24.947 -23.382 44.58 -37.936 57.037 z m 22.551 6.086 c 13.213 -14.173 24.791 -33.157 34.218 -56.329 c 0.277 -0.681 0.534 -1.382 0.806 -2.067 c 14.34 3.954 27.749 8.811 39.875 14.479 c -21.082 19.744 -46.543 34.947 -74.899 43.917 z m 89.457 -59.071 c -14.31 -7.22 -30.391 -13.337 -47.71 -18.2 c 9.645 -30.448 15.076 -64.671 15.929 -100.576 h 79.565 c -2.279 44.967 -19.822 86.4 -47.784 118.776 z"
           transform=" translate(-256, -256)"
           style="stroke: none; stroke-width: 1; stroke-dasharray: none; stroke-linecap: butt; stroke-dashoffset: 0; stroke-linejoin: miter; stroke-miterlimit: 4; fill: rgb(0,0,0); fill-rule: nonzero; opacity: 1;" /></g><g
         id="g109"
         transform="matrix(1 0 0 1 -25.01 236.5)"><path
           id="path107"
           stroke-linecap="round"
           d="m 230.985 482.5 c -5.523 0 -10 4.477 -10 10 s 4.477 10 10 10 h 0.028 c 5.523 0 9.986 -4.477 9.986 -10 s -4.491 -10 -10.014 -10 z"
           transform=" translate(-230.99, -492.5)"
           style="stroke: none; stroke-width: 1; stroke-dasharray: none; stroke-linecap: butt; stroke-dashoffset: 0; stroke-linejoin: miter; stroke-miterlimit: 4; fill: rgb(0,0,0); fill-rule: nonzero; opacity: 1;" /></g></g></g><g
     id="logo-name"
     style=""
     transform="matrix(1.88 0 0 1.88 339.26 205.49)"><linearGradient
       y2="33.89999999999999"
       x2="0"
       y1="0"
       x1="0"
       gradientTransform="matrix(1 0 0 1 -39.3 -16.95)"
       gradientUnits="userSpaceOnUse"
       id="SVGID_2"><stop
         id="stop114"
         style="stop-color:rgb(51,109,210);stop-opacity: 1"
         offset="0%" /></linearGradient><text
       id="text119"
       style="stroke: none; stroke-width: 1; stroke-dasharray: none; stroke-linecap: butt; stroke-dashoffset: 0; stroke-linejoin: miter; stroke-miterlimit: 4; fill: url(#SVGID_2); fill-rule: nonzero; opacity: 1; white-space: pre;"
       font-weight="normal"
       font-style="normal"
       font-size="30"
       font-family="Yeseva One"
       xml:space="preserve"><tspan
         id="tspan117"
         y="9.42"
         x="-39.3">ERSB</tspan></text>
</g></svg>